<!DOCTYPE svg PUBLIC "-//W3C//DTD SVG 1.1//EN" "http://www.w3.org/Graphics/SVG/1.1/DTD/svg11.dtd">
<!-- Uploaded to: SVG Repo, www.svgrepo.com, Transformed by: SVG Repo Mixer Tools -->
<svg fill="#000000" height="64px" width="64px" version="1.1" id="Layer_1" xmlns="http://www.w3.org/2000/svg" xmlns:xlink="http://www.w3.org/1999/xlink" viewBox="0 0 511.776 511.776" xml:space="preserve">
<g id="SVGRepo_bgCarrier" stroke-width="0"/>
<g id="SVGRepo_tracerCarrier" stroke-linecap="round" stroke-linejoin="round"/>
<g id="SVGRepo_iconCarrier"> <g> <g> <path d="M437.56,71.152h-16.416c-4.048-16.176-12.08-31.616-24.784-44.448C378.584,9.488,354.76,0,329.272,0 c-24,0-46.304,8.384-64.512,24.304l-8.912,7.808l-8.8-8.032C230.296,8.736,207.4,0.304,182.6,0.304 c-26.384,0-50.4,9.552-67.648,26.928c-12.496,12.64-20.416,27.904-24.4,43.92H74.216c-27.024,0-49.024,21.808-49.024,48.64v228.4 c0,26.832,22,48.64,49.024,48.64h167.856l145.424,114.944V396.832h50.064c27.024,0,49.024-21.808,49.024-48.64v-228.4 C486.584,92.96,464.584,71.152,437.56,71.152z M119.896,89.616c0.112-1.504,0.208-3.008,0.416-4.512 c0.224-1.648,0.496-3.28,0.848-4.912c0.688-3.056,1.504-6.08,2.656-9.024c0,0,0,0,0-0.016c3.04-7.776,7.616-15.072,13.872-21.408 c11.152-11.248,27.104-17.44,44.912-17.44c16.8,0,32.016,5.472,42.864,15.392l25.68,23.456l4.304,3.936l30.4-26.72 c12.256-10.704,27.264-16.352,43.424-16.352c17.136,0,33.056,6.288,44.592,17.44c8.688,8.784,14.128,19.424,16.672,30.592 c0.368,1.696,0.656,3.408,0.88,5.12c0.208,1.456,0.32,2.896,0.416,4.352c0.288,4.544,0.208,9.104-0.448,13.632 c-1.888,13.024-7.6,25.68-17.568,36.048L256.072,262.736L137.864,138.992c-9.92-10.304-15.616-22.912-17.504-35.872 C119.704,98.624,119.624,94.112,119.896,89.616z M454.584,348.192c0,9.168-7.648,16.64-17.024,16.64h-82.064v80.848 l-102.304-80.848H74.216c-9.392,0-17.024-7.472-17.024-16.64v-228.4c0-9.168,7.648-16.64,17.024-16.64h14.08 c2.032,20.928,10.576,41.456,26.496,57.984L256.12,309.072l140.832-147.728c15.968-16.592,24.512-37.168,26.512-58.192h14.112 c9.36,0,17.008,7.472,17.008,16.64V348.192z"/> </g> </g> </g>
</svg>